<svg xmlns="http://www.w3.org/2000/svg" xmlns:xlink="http://www.w3.org/1999/xlink" width="113.213" height="174.04" viewBox="0 0 113.213 174.04"><defs><clipPath id="clip-path"><rect id="Rectangle_49" data-name="Rectangle 49" width="113.213" height="174.04" fill="none"></rect></clipPath></defs><g id="Group_117" data-name="Group 117" transform="translate(0 0)"><g id="Group_116" data-name="Group 116" transform="translate(0 0)" clip-path="url(#clip-path)"><path id="Path_68" data-name="Path 68" d="M83.972.69A2.489,2.489,0,0,1,85.691.007L110.9,0a2.232,2.232,0,0,1,2.265,2.2s.087,20.027.023,24.526a2.149,2.149,0,0,1-.646,1.5L71.2,69.181a2.188,2.188,0,0,0,1.6,3.749h38.1a2.232,2.232,0,0,1,2.265,2.2v35.89a2.232,2.232,0,0,1-2.266,2.2H34.525a9.206,9.206,0,0,1-6.4-2.571L.663,84.013a2.147,2.147,0,0,1-.006-3.1Z" transform="translate(0 -0.001)" fill="#055445"></path><path id="Path_69" data-name="Path 69" d="M1.775,0H38.834A1.764,1.764,0,0,1,40.61,1.815,40.716,40.716,0,0,1,1.815,40.628,1.765,1.765,0,0,1,0,38.851V1.775A1.775,1.775,0,0,1,1.775,0" transform="translate(0 0)" fill="#055445"></path><path id="Path_70" data-name="Path 70" d="M15.326,92.427c-1.922,0-2.034-2.526-4.119-2.526-1.374,0-2.364.826-2.364,4.506,0,2.8.166,3.295.166,5v.077h4.835c1.482,0,1.482.276,1.482.988a2.724,2.724,0,0,1-2.912,2.582h-3.4v18.238c0,1.041.274,1.7.824,1.7,1.208,0,1.374.548,1.374,1.208,0,1.154-.824,1.87-2.638,1.87H2.635c-1.7,0-2.635-.716-2.635-1.87,0-.66.11-1.208,1.318-1.208.66,0,.934-.55.934-1.7V103.053H1.1c-.33,0-1.1,0-1.1-.768,0-2.987,2.252-2.8,2.252-2.8V98.91c0-5.767,1.7-7.854,3.3-9.228A14.283,14.283,0,0,1,14.5,86.274c.77,0,3.242.276,3.242,2.2,0,2.087-.384,3.953-2.418,3.953" transform="translate(0 47.368)" fill="#055445"></path><path id="Path_71" data-name="Path 71" d="M21.552,125.1H15.673c-1.208,0-2.745-.768-2.745-2.09,0-.658.164-1.318,1.372-1.318.55,0,.878-.768.878-1.867V93.314c0-1.537-.328-1.867-.878-1.867-1.262,0-1.43-.658-1.43-1.32,0-1.482,1.54-2.087,2.748-2.087H20.4c1.261,0,1.592,1.484,1.592,3.241,1.152-1.977,3.846-3.515,7.088-3.515,5.879,0,9.451,3.735,9.451,10.164v22.9c0,1.1.33,1.867.934,1.867,1.208,0,1.372.66,1.372,1.318,0,1.322-1.537,2.09-2.745,2.09H31.937c-1.208,0-2.745-.768-2.745-2.09,0-.658.164-1.318,1.372-1.318.55,0,.879-.768.879-1.867V101.948c0-3.515-1.648-5.493-4.339-5.493-2.473,0-4.175,1.922-4.175,5.383v18.49c0,1.1.33,1.867.879,1.867,1.208,0,1.372.66,1.372,1.318,0,1.322-1.537,2.09-2.628,2.09" transform="translate(18.57 47.368)" fill="#055445"></path><path id="Path_72" data-name="Path 72" d="M18.8,121.617c0,1.1.33,1.867.878,1.867,1.208,0,1.374.66,1.374,1.318,0,1.322-1.538,2.09-2.746,2.09H12.427c-1.208,0-2.746-.768-2.746-2.09,0-.658.166-1.318,1.374-1.318.548,0,.878-.768.878-1.867V107.994l-4.614-3.789c-.988-.824-1.648-1.264-1.648-2.252a2.188,2.188,0,0,1,2.142-2.252,2.3,2.3,0,0,1,1.538.6l2.582,2.2V88.856c0-1.537-.33-1.867-.878-1.867-1.208,0-1.374-.658-1.374-1.318,0-1.482,1.538-2.087,2.746-2.087h5.879c1.208,0,1.594,1.484,1.594,3.241V107.17l5.493-5.659a2.069,2.069,0,0,0,.658-1.482,2.187,2.187,0,0,1,2.254-2.2,2.22,2.22,0,0,1,2.2,2.2c0,1.1-.494,1.812-1.426,2.8l-4.78,4.944,5.988,9.451a3.158,3.158,0,0,0,2.418,1.648c1.1,0,1.154.714,1.154,1.318,0,1.43-1.1,2.09-2.528,2.09H26.272a3.655,3.655,0,0,1-3.406-2.09l-4.066-6.649Z" transform="translate(36.659 46.448)" fill="#055445"></path><path id="Path_73" data-name="Path 73" d="M20.141,115.4c0,4.888,1.812,7.636,5.219,7.636a8.152,8.152,0,0,0,6.483-3.351,2.043,2.043,0,0,1,1.648-.824,2.119,2.119,0,0,1,2.032,2.2,2.529,2.529,0,0,1-.6,1.7,12.647,12.647,0,0,1-9.945,4.449c-7.856,0-12.469-5.219-12.469-13.953,0-8.627,4.449-14.008,11.977-14.008,6.813,0,10.549,4.175,10.549,11.647a5.078,5.078,0,0,1-1.1,3.46,3.672,3.672,0,0,1-2.8,1.044ZM26.186,112c2.2,0,2.856-.714,2.856-2.8,0-3.406-1.538-5.329-4.229-5.329-3.076,0-4.834,2.2-4.834,6.427v1.7Z" transform="translate(56.002 46.975)" fill="#055445"></path></g></g></svg>